<svg width="401" height="117" viewBox="0 0 401 117" fill="none" xmlns="http://www.w3.org/2000/svg">
<g clip-path="url(#clip0)">
<g filter="url(#filter0_d)">
<path d="M125.406 35.8125V71.25C125.359 76.5703 123.895 80.6484 121.012 83.4844C118.129 86.2969 113.992 87.7031 108.602 87.7031C103.117 87.7031 98.9219 86.2734 96.0156 83.4141C93.1328 80.5547 91.6914 76.418 91.6914 71.0039V35.8125H102.098V71.0391C102.098 73.9453 102.566 76.0195 103.504 77.2617C104.441 78.5039 106.141 79.125 108.602 79.125C111.062 79.125 112.75 78.5156 113.664 77.2969C114.578 76.0547 115.047 74.0273 115.07 71.2148V35.8125H125.406ZM148.75 68.2969H143.617V87H133.281V35.8125H149.77C154.949 35.8125 158.945 37.1602 161.758 39.8555C164.594 42.5273 166.012 46.3359 166.012 51.2812C166.012 58.0781 163.539 62.8359 158.594 65.5547L167.559 86.5078V87H156.449L148.75 68.2969ZM143.617 59.6836H149.488C151.551 59.6836 153.098 59.0039 154.129 57.6445C155.16 56.2617 155.676 54.4219 155.676 52.125C155.676 46.9922 153.672 44.4258 149.664 44.4258H143.617V59.6836ZM237.977 76.5234H223.879L221.137 87H210.203L226.199 35.8125H235.656L251.758 87H240.719L237.977 76.5234ZM226.129 67.9102H235.691L230.91 49.6641L226.129 67.9102ZM292.363 87H282.027L266.91 53.4258V87H256.574V35.8125H266.91L282.062 69.4219V35.8125H292.363V87ZM351.883 87H341.547V35.8125H351.883V87ZM396.355 87H386.02L370.902 53.4258V87H360.566V35.8125H370.902L386.055 69.4219V35.8125H396.355V87Z" fill="black"/>
<path d="M173.113 87V35.8125H188.934C194.277 35.8125 198.332 37.0078 201.098 39.3984C203.887 41.7656 205.281 45.2461 205.281 49.8398C205.281 52.4414 204.707 54.6797 203.559 56.5547C202.41 58.4297 200.84 59.8008 198.848 60.668C201.145 61.3242 202.914 62.6484 204.156 64.6406C205.398 66.6094 206.02 69.0469 206.02 71.9531C206.02 76.9219 204.648 80.6719 201.906 83.2031C199.188 85.7344 195.238 87 190.059 87H173.113ZM183.449 64.7461V78.4219H190.059C191.91 78.4219 193.316 77.8477 194.277 76.6992C195.238 75.5508 195.719 73.9219 195.719 71.8125C195.719 67.2188 194.055 64.8633 190.727 64.7461H183.449ZM183.449 57.2227H188.828C192.883 57.2227 194.91 55.125 194.91 50.9297C194.91 48.6094 194.441 46.9453 193.504 45.9375C192.566 44.9297 191.043 44.4258 188.934 44.4258H183.449V57.2227ZM300.66 87V35.8125H316.48C321.824 35.8125 325.879 37.0078 328.645 39.3984C331.434 41.7656 332.828 45.2461 332.828 49.8398C332.828 52.4414 332.254 54.6797 331.105 56.5547C329.957 58.4297 328.387 59.8008 326.395 60.668C328.691 61.3242 330.461 62.6484 331.703 64.6406C332.945 66.6094 333.566 69.0469 333.566 71.9531C333.566 76.9219 332.195 80.6719 329.453 83.2031C326.734 85.7344 322.785 87 317.605 87H300.66ZM310.996 64.7461V78.4219H317.605C319.457 78.4219 320.863 77.8477 321.824 76.6992C322.785 75.5508 323.266 73.9219 323.266 71.8125C323.266 67.2188 321.602 64.8633 318.273 64.7461H310.996ZM310.996 57.2227H316.375C320.43 57.2227 322.457 55.125 322.457 50.9297C322.457 48.6094 321.988 46.9453 321.051 45.9375C320.113 44.9297 318.59 44.4258 316.48 44.4258H310.996V57.2227Z" fill="#2A32F2"/>
</g>
<g filter="url(#filter1_d)">
<path d="M68.8109 21.8268H56.3163V17.5517C56.3163 14.4905 53.9103 12 50.953 12H31.0224C28.0651 12 25.659 14.4905 25.659 17.5517V21.8266H13.1645C10.1574 21.8266 7.71133 24.3588 7.71133 27.4713V33.3528C7.71133 34.3754 8.51233 35.2044 9.50008 35.2044H11.667L15.1693 105.045C15.2185 106.028 16.0038 106.8 16.9556 106.8H65.0196C65.9714 106.8 66.7567 106.028 66.8059 105.045L70.3082 35.2044H72.4751C73.4629 35.2044 74.2639 34.3754 74.2639 33.3528V27.4715C74.264 24.359 71.8178 21.8268 68.8109 21.8268V21.8268ZM29.2365 17.5517C29.2365 16.5324 30.0377 15.7031 31.0224 15.7031H50.953C51.9378 15.7031 52.7388 16.5324 52.7388 17.5517V21.8266H29.2365V17.5517ZM63.3214 103.097H18.654L15.2493 35.2044H66.7263L63.3214 103.097ZM70.6866 31.5012H11.2888V27.4715C11.2888 26.4009 12.1302 25.5299 13.1645 25.5299H68.8109C69.8451 25.5299 70.6866 26.4009 70.6866 27.4715V31.5012Z" fill="black"/>
<path d="M38.6031 93.0986H43.3723C44.3359 93.0986 45.1263 92.3085 45.1599 91.3117L46.6508 47.119C46.6678 46.6171 46.487 46.1296 46.1498 45.7681C45.8126 45.4069 45.3485 45.2028 44.8632 45.2028H37.1122C36.6269 45.2028 36.1626 45.4069 35.8256 45.7681C35.4884 46.1296 35.3075 46.6169 35.3245 47.119L36.8154 91.3117C36.8491 92.3085 37.6395 93.0986 38.6031 93.0986V93.0986ZM43.0109 48.906L41.6449 89.3955H40.3305L38.9644 48.906H43.0109Z" fill="black"/>
<path d="M22.6432 91.367C22.7042 92.3409 23.4852 93.0986 24.4282 93.0986H30.7298C31.2151 93.0986 31.6794 92.8946 32.0164 92.5333C32.3536 92.1719 32.5345 91.6846 32.5175 91.1824L31.0266 46.9898C30.9929 45.9929 30.2025 45.2028 29.2389 45.2028H21.655C21.1604 45.2028 20.688 45.4148 20.3497 45.7883C20.0115 46.1618 19.838 46.6635 19.87 47.1744L22.6432 91.367ZM27.5113 48.906L28.8774 89.3955H26.1045L23.5636 48.906H27.5113Z" fill="black"/>
<path d="M51.2458 93.0986H57.5473C58.4902 93.0986 59.2713 92.3409 59.3323 91.367L62.1058 47.1744C62.138 46.6635 61.9643 46.1618 61.626 45.7883C61.2878 45.4147 60.8154 45.2028 60.3208 45.2028H52.7369C51.7733 45.2028 50.9829 45.9929 50.9492 46.9898L49.4583 91.1824C49.4413 91.6844 49.6222 92.1719 49.9593 92.5333C50.2962 92.8946 50.7605 93.0986 51.2458 93.0986ZM54.4641 48.906H58.4118L55.8709 89.3955H53.098L54.4641 48.906Z" fill="black"/>
<path d="M81.9794 2L81 116" stroke="black" stroke-width="3"/>
</g>
<g filter="url(#filter2_d)">
<path d="M104.75 107.465H98.9844V115H96.8398V97.9375H105.723V99.7891H98.9844V105.625H104.75V107.465ZM107.387 108.074C107.387 106.23 107.832 104.773 108.723 103.703C109.621 102.625 110.805 102.086 112.273 102.086C113.742 102.086 114.922 102.609 115.812 103.656C116.711 104.703 117.172 106.129 117.195 107.934V109.27C117.195 111.105 116.75 112.559 115.859 113.629C114.969 114.699 113.781 115.234 112.297 115.234C110.828 115.234 109.648 114.715 108.758 113.676C107.875 112.637 107.418 111.23 107.387 109.457V108.074ZM109.461 109.27C109.461 110.574 109.715 111.602 110.223 112.352C110.738 113.094 111.43 113.465 112.297 113.465C114.125 113.465 115.066 112.145 115.121 109.504V108.074C115.121 106.777 114.863 105.754 114.348 105.004C113.832 104.246 113.141 103.867 112.273 103.867C111.422 103.867 110.738 104.246 110.223 105.004C109.715 105.754 109.461 106.773 109.461 108.062V109.27ZM125.105 104.266C124.816 104.211 124.504 104.184 124.168 104.184C123.105 104.184 122.363 104.766 121.941 105.93V115H119.867V102.32H121.883L121.918 103.609C122.473 102.594 123.258 102.086 124.273 102.086C124.602 102.086 124.875 102.141 125.094 102.25L125.105 104.266ZM139.215 115C139.09 114.727 139 114.266 138.945 113.617C138.211 114.695 137.273 115.234 136.133 115.234C134.984 115.234 134.086 114.914 133.438 114.273C132.797 113.625 132.477 112.715 132.477 111.543C132.477 110.254 132.914 109.23 133.789 108.473C134.664 107.715 135.863 107.328 137.387 107.312H138.91V105.965C138.91 105.207 138.742 104.668 138.406 104.348C138.07 104.027 137.559 103.867 136.871 103.867C136.246 103.867 135.738 104.055 135.348 104.43C134.957 104.797 134.762 105.266 134.762 105.836H132.688C132.688 105.188 132.879 104.57 133.262 103.984C133.645 103.391 134.16 102.926 134.809 102.59C135.457 102.254 136.18 102.086 136.977 102.086C138.273 102.086 139.258 102.41 139.93 103.059C140.609 103.699 140.957 104.637 140.973 105.871V112.27C140.98 113.246 141.113 114.094 141.371 114.812V115H139.215ZM136.449 113.348C136.957 113.348 137.441 113.207 137.902 112.926C138.363 112.645 138.699 112.293 138.91 111.871V108.848H137.738C136.754 108.863 135.977 109.086 135.406 109.516C134.836 109.938 134.551 110.531 134.551 111.297C134.551 112.016 134.695 112.539 134.984 112.867C135.273 113.188 135.762 113.348 136.449 113.348ZM154.109 113.465C154.797 113.465 155.348 113.254 155.762 112.832C156.176 112.402 156.402 111.793 156.441 111.004H158.398C158.352 112.223 157.918 113.234 157.098 114.039C156.285 114.836 155.289 115.234 154.109 115.234C152.539 115.234 151.34 114.742 150.512 113.758C149.691 112.766 149.281 111.293 149.281 109.34V107.945C149.281 106.031 149.691 104.578 150.512 103.586C151.332 102.586 152.527 102.086 154.098 102.086C155.395 102.086 156.422 102.496 157.18 103.316C157.945 104.137 158.352 105.258 158.398 106.68H156.441C156.395 105.742 156.168 105.039 155.762 104.57C155.363 104.102 154.809 103.867 154.098 103.867C153.176 103.867 152.492 104.172 152.047 104.781C151.602 105.383 151.371 106.375 151.355 107.758V109.375C151.355 110.867 151.574 111.922 152.012 112.539C152.457 113.156 153.156 113.465 154.109 113.465ZM163.027 115H160.953V97H163.027V115ZM170.832 115.234C169.254 115.234 168.043 114.766 167.199 113.828C166.355 112.883 165.926 111.5 165.91 109.68V108.145C165.91 106.254 166.32 104.773 167.141 103.703C167.969 102.625 169.121 102.086 170.598 102.086C172.082 102.086 173.191 102.559 173.926 103.504C174.66 104.449 175.035 105.922 175.051 107.922V109.281H167.973V109.574C167.973 110.934 168.227 111.922 168.734 112.539C169.25 113.156 169.988 113.465 170.949 113.465C171.559 113.465 172.094 113.352 172.555 113.125C173.023 112.891 173.461 112.523 173.867 112.023L174.945 113.336C174.047 114.602 172.676 115.234 170.832 115.234ZM170.598 103.867C169.738 103.867 169.102 104.164 168.688 104.758C168.273 105.344 168.039 106.258 167.984 107.5H172.977V107.219C172.922 106.016 172.703 105.156 172.32 104.641C171.945 104.125 171.371 103.867 170.598 103.867ZM184.074 115C183.949 114.727 183.859 114.266 183.805 113.617C183.07 114.695 182.133 115.234 180.992 115.234C179.844 115.234 178.945 114.914 178.297 114.273C177.656 113.625 177.336 112.715 177.336 111.543C177.336 110.254 177.773 109.23 178.648 108.473C179.523 107.715 180.723 107.328 182.246 107.312H183.77V105.965C183.77 105.207 183.602 104.668 183.266 104.348C182.93 104.027 182.418 103.867 181.73 103.867C181.105 103.867 180.598 104.055 180.207 104.43C179.816 104.797 179.621 105.266 179.621 105.836H177.547C177.547 105.188 177.738 104.57 178.121 103.984C178.504 103.391 179.02 102.926 179.668 102.59C180.316 102.254 181.039 102.086 181.836 102.086C183.133 102.086 184.117 102.41 184.789 103.059C185.469 103.699 185.816 104.637 185.832 105.871V112.27C185.84 113.246 185.973 114.094 186.23 114.812V115H184.074ZM181.309 113.348C181.816 113.348 182.301 113.207 182.762 112.926C183.223 112.645 183.559 112.293 183.77 111.871V108.848H182.598C181.613 108.863 180.836 109.086 180.266 109.516C179.695 109.938 179.41 110.531 179.41 111.297C179.41 112.016 179.555 112.539 179.844 112.867C180.133 113.188 180.621 113.348 181.309 113.348ZM191.012 102.32L191.07 103.691C191.875 102.621 192.902 102.086 194.152 102.086C196.395 102.086 197.531 103.582 197.562 106.574V115H195.5V106.668C195.5 105.676 195.332 104.973 194.996 104.559C194.668 104.137 194.172 103.926 193.508 103.926C192.992 103.926 192.527 104.098 192.113 104.441C191.707 104.785 191.379 105.234 191.129 105.789V115H189.055V102.32H191.012ZM207.102 115V103.996H205.449V102.32H207.102V100.855C207.125 99.5664 207.449 98.5625 208.074 97.8438C208.707 97.1172 209.598 96.7539 210.746 96.7539C211.16 96.7539 211.578 96.8203 212 96.9531L211.895 98.7109C211.598 98.6406 211.281 98.6055 210.945 98.6055C209.766 98.6055 209.176 99.4453 209.176 101.125V102.32H211.344V103.996H209.176V115H207.102ZM220.25 113.887C219.562 114.785 218.559 115.234 217.238 115.234C216.09 115.234 215.223 114.84 214.637 114.051C214.051 113.254 213.754 112.098 213.746 110.582V102.32H215.809V110.43C215.809 112.406 216.402 113.395 217.59 113.395C218.848 113.395 219.715 112.832 220.191 111.707V102.32H222.266V115H220.297L220.25 113.887ZM228.102 99.25V102.32H230.012V103.996H228.102V111.859C228.102 112.359 228.184 112.738 228.348 112.996C228.512 113.254 228.793 113.383 229.191 113.383C229.465 113.383 229.742 113.336 230.023 113.242L230 115C229.531 115.156 229.051 115.234 228.559 115.234C227.738 115.234 227.113 114.941 226.684 114.355C226.254 113.77 226.039 112.941 226.039 111.871V103.996H224.105V102.32H226.039V99.25H228.102ZM238.953 113.887C238.266 114.785 237.262 115.234 235.941 115.234C234.793 115.234 233.926 114.84 233.34 114.051C232.754 113.254 232.457 112.098 232.449 110.582V102.32H234.512V110.43C234.512 112.406 235.105 113.395 236.293 113.395C237.551 113.395 238.418 112.832 238.895 111.707V102.32H240.969V115H239L238.953 113.887ZM249.324 104.266C249.035 104.211 248.723 104.184 248.387 104.184C247.324 104.184 246.582 104.766 246.16 105.93V115H244.086V102.32H246.102L246.137 103.609C246.691 102.594 247.477 102.086 248.492 102.086C248.82 102.086 249.094 102.141 249.312 102.25L249.324 104.266ZM255.699 115.234C254.121 115.234 252.91 114.766 252.066 113.828C251.223 112.883 250.793 111.5 250.777 109.68V108.145C250.777 106.254 251.188 104.773 252.008 103.703C252.836 102.625 253.988 102.086 255.465 102.086C256.949 102.086 258.059 102.559 258.793 103.504C259.527 104.449 259.902 105.922 259.918 107.922V109.281H252.84V109.574C252.84 110.934 253.094 111.922 253.602 112.539C254.117 113.156 254.855 113.465 255.816 113.465C256.426 113.465 256.961 113.352 257.422 113.125C257.891 112.891 258.328 112.523 258.734 112.023L259.812 113.336C258.914 114.602 257.543 115.234 255.699 115.234ZM255.465 103.867C254.605 103.867 253.969 104.164 253.555 104.758C253.141 105.344 252.906 106.258 252.852 107.5H257.844V107.219C257.789 106.016 257.57 105.156 257.188 104.641C256.812 104.125 256.238 103.867 255.465 103.867Z" fill="black"/>
</g>
</g>
<defs>
<filter id="filter0_d" x="87.6914" y="35.8125" width="312.664" height="59.8906" filterUnits="userSpaceOnUse" color-interpolation-filters="sRGB">
<feFlood flood-opacity="0" result="BackgroundImageFix"/>
<feColorMatrix in="SourceAlpha" type="matrix" values="0 0 0 0 0 0 0 0 0 0 0 0 0 0 0 0 0 0 127 0"/>
<feOffset dy="4"/>
<feGaussianBlur stdDeviation="2"/>
<feColorMatrix type="matrix" values="0 0 0 0 0 0 0 0 0 0 0 0 0 0 0 0 0 0 0.25 0"/>
<feBlend mode="normal" in2="BackgroundImageFix" result="effect1_dropShadow"/>
<feBlend mode="normal" in="SourceGraphic" in2="effect1_dropShadow" result="shape"/>
</filter>
<filter id="filter1_d" x="-10" y="-1" width="103" height="128" filterUnits="userSpaceOnUse" color-interpolation-filters="sRGB">
<feFlood flood-opacity="0" result="BackgroundImageFix"/>
<feColorMatrix in="SourceAlpha" type="matrix" values="0 0 0 0 0 0 0 0 0 0 0 0 0 0 0 0 0 0 127 0"/>
<feOffset dy="4"/>
<feGaussianBlur stdDeviation="2"/>
<feColorMatrix type="matrix" values="0 0 0 0 0 0 0 0 0 0 0 0 0 0 0 0 0 0 0.25 0"/>
<feBlend mode="normal" in2="BackgroundImageFix" result="effect1_dropShadow"/>
<feBlend mode="normal" in="SourceGraphic" in2="effect1_dropShadow" result="shape"/>
</filter>
<filter id="filter2_d" x="92.8398" y="96.7539" width="171.078" height="26.4805" filterUnits="userSpaceOnUse" color-interpolation-filters="sRGB">
<feFlood flood-opacity="0" result="BackgroundImageFix"/>
<feColorMatrix in="SourceAlpha" type="matrix" values="0 0 0 0 0 0 0 0 0 0 0 0 0 0 0 0 0 0 127 0"/>
<feOffset dy="4"/>
<feGaussianBlur stdDeviation="2"/>
<feColorMatrix type="matrix" values="0 0 0 0 0 0 0 0 0 0 0 0 0 0 0 0 0 0 0.25 0"/>
<feBlend mode="normal" in2="BackgroundImageFix" result="effect1_dropShadow"/>
<feBlend mode="normal" in="SourceGraphic" in2="effect1_dropShadow" result="shape"/>
</filter>
<clipPath id="clip0">
<rect width="401" height="117" fill="white"/>
</clipPath>
</defs>
</svg>
