<svg width="314" height="61" viewBox="0 0 314 61" fill="none" xmlns="http://www.w3.org/2000/svg">
<g filter="url(#filter0_d)">
<path d="M38.4062 0.8125V36.25C38.3594 41.5703 36.8945 45.6484 34.0117 48.4844C31.1289 51.2969 26.9922 52.7031 21.6016 52.7031C16.1172 52.7031 11.9219 51.2734 9.01562 48.4141C6.13281 45.5547 4.69141 41.418 4.69141 36.0039V0.8125H15.0977V36.0391C15.0977 38.9453 15.5664 41.0195 16.5039 42.2617C17.4414 43.5039 19.1406 44.125 21.6016 44.125C24.0625 44.125 25.75 43.5156 26.6641 42.2969C27.5781 41.0547 28.0469 39.0273 28.0703 36.2148V0.8125H38.4062ZM61.75 33.2969H56.6172V52H46.2812V0.8125H62.7695C67.9492 0.8125 71.9453 2.16016 74.7578 4.85547C77.5938 7.52734 79.0117 11.3359 79.0117 16.2812C79.0117 23.0781 76.5391 27.8359 71.5938 30.5547L80.5586 51.5078V52H69.4492L61.75 33.2969ZM56.6172 24.6836H62.4883C64.5508 24.6836 66.0977 24.0039 67.1289 22.6445C68.1602 21.2617 68.6758 19.4219 68.6758 17.125C68.6758 11.9922 66.6719 9.42578 62.6641 9.42578H56.6172V24.6836ZM150.977 41.5234H136.879L134.137 52H123.203L139.199 0.8125H148.656L164.758 52H153.719L150.977 41.5234ZM139.129 32.9102H148.691L143.91 14.6641L139.129 32.9102ZM205.363 52H195.027L179.91 18.4258V52H169.574V0.8125H179.91L195.062 34.4219V0.8125H205.363V52ZM264.883 52H254.547V0.8125H264.883V52ZM309.355 52H299.02L283.902 18.4258V52H273.566V0.8125H283.902L299.055 34.4219V0.8125H309.355V52Z" fill="black"/>
<path d="M86.1133 52V0.8125H101.934C107.277 0.8125 111.332 2.00781 114.098 4.39844C116.887 6.76562 118.281 10.2461 118.281 14.8398C118.281 17.4414 117.707 19.6797 116.559 21.5547C115.41 23.4297 113.84 24.8008 111.848 25.668C114.145 26.3242 115.914 27.6484 117.156 29.6406C118.398 31.6094 119.02 34.0469 119.02 36.9531C119.02 41.9219 117.648 45.6719 114.906 48.2031C112.188 50.7344 108.238 52 103.059 52H86.1133ZM96.4492 29.7461V43.4219H103.059C104.91 43.4219 106.316 42.8477 107.277 41.6992C108.238 40.5508 108.719 38.9219 108.719 36.8125C108.719 32.2188 107.055 29.8633 103.727 29.7461H96.4492ZM96.4492 22.2227H101.828C105.883 22.2227 107.91 20.125 107.91 15.9297C107.91 13.6094 107.441 11.9453 106.504 10.9375C105.566 9.92969 104.043 9.42578 101.934 9.42578H96.4492V22.2227ZM213.66 52V0.8125H229.48C234.824 0.8125 238.879 2.00781 241.645 4.39844C244.434 6.76562 245.828 10.2461 245.828 14.8398C245.828 17.4414 245.254 19.6797 244.105 21.5547C242.957 23.4297 241.387 24.8008 239.395 25.668C241.691 26.3242 243.461 27.6484 244.703 29.6406C245.945 31.6094 246.566 34.0469 246.566 36.9531C246.566 41.9219 245.195 45.6719 242.453 48.2031C239.734 50.7344 235.785 52 230.605 52H213.66ZM223.996 29.7461V43.4219H230.605C232.457 43.4219 233.863 42.8477 234.824 41.6992C235.785 40.5508 236.266 38.9219 236.266 36.8125C236.266 32.2188 234.602 29.8633 231.273 29.7461H223.996ZM223.996 22.2227H229.375C233.43 22.2227 235.457 20.125 235.457 15.9297C235.457 13.6094 234.988 11.9453 234.051 10.9375C233.113 9.92969 231.59 9.42578 229.48 9.42578H223.996V22.2227Z" fill="#2A32F2"/>
</g>
<defs>
<filter id="filter0_d" x="0.691406" y="0.8125" width="312.664" height="59.8906" filterUnits="userSpaceOnUse" color-interpolation-filters="sRGB">
<feFlood flood-opacity="0" result="BackgroundImageFix"/>
<feColorMatrix in="SourceAlpha" type="matrix" values="0 0 0 0 0 0 0 0 0 0 0 0 0 0 0 0 0 0 127 0"/>
<feOffset dy="4"/>
<feGaussianBlur stdDeviation="2"/>
<feColorMatrix type="matrix" values="0 0 0 0 0 0 0 0 0 0 0 0 0 0 0 0 0 0 0.25 0"/>
<feBlend mode="normal" in2="BackgroundImageFix" result="effect1_dropShadow"/>
<feBlend mode="normal" in="SourceGraphic" in2="effect1_dropShadow" result="shape"/>
</filter>
</defs>
</svg>
