<svg xmlns="http://www.w3.org/2000/svg" width="512" height="512" fill="none"><rect id="backgroundrect" width="100%" height="100%" x="0" y="0" fill="none" stroke="none"/>




<g class="currentLayer" style=""><title>Layer 1</title><path d="M145.7121005373001,34.13 C143.5561005373001,30.157 138.5881005373001,28.683 134.6171005373001,30.84 C125.88010053730011,35.581 117.31510053730011,40.9 109.16110053730011,46.648 C105.4681005373001,49.254 104.58510053730011,54.358 107.1891005373001,58.052 C108.78210053730011,60.313 111.31310053730012,61.521 113.88410053730011,61.521 C115.5131005373001,61.521 117.1591005373001,61.035 118.59210053730011,60.025 C126.22510053730011,54.642 134.2431005373001,49.663 142.4211005373001,45.226 C146.39410053730012,43.071 147.8671005373001,38.104 145.7121005373001,34.13 z" fill="#ffffff" id="svg_1" class="" fill-opacity="1"/><path d="M437.018 74.981C388.667 26.629 324.38 0 255.999 0C225.255 0 195.168 5.406 166.572 16.071C162.338 17.65 160.185 22.363 161.764 26.597C163.343 30.833 168.057 32.988 172.29 31.405C199.051 21.427 227.214 16.367 255.999 16.367C320.008 16.367 380.184 41.294 425.446 86.553C470.706 131.813 495.633 191.991 495.633 256C495.633 320.009 470.706 380.185 425.446 425.447C380.186 470.706 320.008 495.633 255.999 495.633C191.99 495.633 131.814 470.706 86.552 425.447C41.292 380.187 16.366 320.009 16.366 256C16.366 221.993 23.341 189.138 37.099 158.349C50.392 128.599 69.315 102.249 93.345 80.028C96.663 76.959 96.866 71.782 93.797 68.464C90.728 65.146 85.551 64.942 82.234 68.012C56.571 91.744 36.359 119.892 22.158 151.672C7.454 184.576 0 219.676 0 255.999C0 324.38 26.628 388.666 74.981 437.019C123.334 485.372 187.62 512 255.999 512C324.38 512 388.666 485.372 437.018 437.019C485.37 388.667 512 324.381 512 256.001C512 187.621 485.371 123.333 437.018 74.981Z" fill="#ffffff" id="svg_2" class="" fill-opacity="1"/><path d="M409.107 284.318C408.052 279.922 403.633 277.222 399.24 278.27C394.846 279.325 392.138 283.743 393.193 288.137C401.15 321.295 398.722 352.245 386.168 377.643C375.013 400.211 356.251 418.13 330.232 431.128C344.194 405.088 350.436 373.971 348.406 339.659C346.413 305.955 337.275 281.2 336.886 280.162C335.573 276.652 332.047 274.481 328.32 274.896C324.595 275.308 321.627 278.199 321.116 281.912C319.513 293.531 309.811 302.908 303.611 307.812C291.612 291.866 291.194 260.166 292.204 248.184C292.443 245.391 291.237 242.671 289.007 240.974C286.776 239.276 283.832 238.841 281.205 239.813C245.502 253.058 230.333 281.532 224.483 297.231C215.782 289.905 209.295 278.096 207.153 273.142C205.839 270.076 202.778 268.1 199.464 268.184C196.131 268.253 193.172 270.337 191.985 273.452C169.398 332.742 184.886 379.152 201.858 407.645C208.65 419.048 216.153 428.503 222.952 435.922C172.16 424.464 138.79 401.901 123.574 368.652C101.679 320.808 123.581 260.889 137.617 239.367C153.903 214.394 154.865 186.864 153.717 171.379C184.173 180.934 191.363 208.168 191.675 209.412C192.668 213.537 196.654 216.216 200.848 215.589C205.045 214.957 208.062 211.221 207.798 206.986C207.764 206.446 204.947 152.739 250.113 128.827C282.742 111.553 302.277 92.141 312.478 79.763C326.644 118.018 319.317 140.564 312.206 162.438C306.1 181.221 299.788 200.642 311.431 225.748C312.748 228.588 315.568 230.427 318.698 230.488C321.84 230.515 324.716 228.818 326.141 226.03C335.264 208.183 352.781 198.577 365.098 193.793C363.48 205.419 364.692 222.659 376.809 243.951C378.567 247.442 380.251 251.02 381.816 254.586C383.632 258.726 388.459 260.607 392.597 258.792C396.735 256.976 398.619 252.149 396.803 248.011C395.093 244.113 393.25 240.203 391.326 236.391C391.262 236.266 391.195 236.141 391.125 236.019C373.685 205.498 383.523 187.255 384.296 185.914C386.103 183.195 386.058 179.753 384.273 177.013C382.478 174.261 379.15 172.939 375.916 173.522C374.344 173.802 342.686 179.728 321.686 203.706C320.007 191.378 323.57 180.415 327.769 167.497C335.803 142.782 345.8 112.022 321.851 59.688C320.572 56.893 317.828 55.064 314.759 54.931C311.69 54.81 308.795 56.408 307.28 59.082C307.11 59.381 289.74 89.33 242.454 114.364C211.035 130.998 198.844 158.778 194.183 179.787C184.888 168.175 169.658 156.287 145.266 152.747C142.611 152.356 139.937 153.31 138.106 155.274C136.276 157.237 135.528 159.98 136.098 162.603C136.178 162.972 143.885 199.792 123.907 230.427C111.469 249.498 81.973 317.081 108.69 375.462C128.98 419.801 175.9 447.24 248.147 457.019C251.889 457.52 255.492 455.405 256.867 451.887C258.241 448.368 257.028 444.367 253.934 442.204C253.72 442.055 232.413 426.97 215.916 399.273C196.867 367.29 192.136 332.725 201.772 296.309C207.539 304.346 215.779 313.117 226.21 317.289C228.471 318.192 231.018 318.044 233.158 316.88C235.298 315.717 236.808 313.66 237.278 311.27C237.35 310.905 244.163 278.093 275.532 260.417C275.816 278.437 279.117 309.594 297.302 324.848C299.965 327.084 303.75 327.389 306.739 325.615C307.456 325.188 318.621 318.45 327.341 306.936C334.114 338.147 340.059 397.946 302.182 443.692C299.851 446.508 299.67 450.529 301.738 453.541C303.295 455.81 305.843 457.095 308.486 457.095C309.353 457.095 310.233 456.956 311.088 456.668C354.263 442.178 384.46 418.032 400.836 384.9C415.11 356.023 417.969 321.243 409.107 284.318Z" fill="#ffffff" id="svg_3" class="" fill-opacity="1"/><path d="M413.5291005373001,59.47089946269989 L94.52910053730011,446.4708994626999 " stroke="#ffffff" stroke-width="15" id="svg_4" class="selected" fill="#ffffff" fill-opacity="1" stroke-opacity="1"/></g></svg>